# xmcd CD database file
#
# Track frame offsets:
#	150
#	19200
#	32025
#	42245
#	53990
#	63073
#	76368
#	90130
#	106268
#	123753
#	135615
#	149168
#	162603
#	179128
#
# Disc length: 2776 seconds
#
# Revision: 0
# Processed by: cddbd v1.4PL0 Copyright (c) Steve Scherf et al.
# Submitted via: CD2WAV32(EN) R3.19
#
DISCID=be0ad60e
DTITLE=Ray Charles - Best
DYEAR=1900
DGENRE=
TTITLE0=I Can't Stop Loving You
TTITLE1=Unchain My Heart
TTITLE2=Yes Indeed
TTITLE3=Lonely Avenue
TTITLE4=Hit The Road Jack
TTITLE5=I Got A Woman
TTITLE6=A Fool For You
TTITLE7=Your Cheating Heart
TTITLE8=Ruby
TTITLE9=Hallelujah I Love Her So
TTITLE10=You Are My Sunshine
TTITLE11=Crying Time
TTITLE12=Georgia On My Mind
TTITLE13=What'd I Say
EXTD=
EXTT0=
EXTT1=
EXTT2=
EXTT3=
EXTT4=
EXTT5=
EXTT6=
EXTT7=
EXTT8=
EXTT9=
EXTT10=
EXTT11=
EXTT12=
EXTT13=
PLAYORDER=
